<svg id="logo__93degres" xmlns="http://www.w3.org/2000/svg" x="0px" y="0px"
	 viewBox="0 0 151.3 19.9" style="enable-background:new 0 0 151.3 19.9;">
<path d="M52.2,5.3h-7.5v14.1h7.5c5.3,0,8.7-2.7,8.7-7.1C60.9,8.1,57.5,5.3,52.2,5.3z M51.9,16.8h-4V8.1h4
	c3.4,0,5.7,1.4,5.7,4.3C57.6,15.3,55.3,16.8,51.9,16.8z M66.9,13.6h9.3v-2.7h-9.3V8.1H78V5.3H63.7v14.1h14.5v-2.7H66.9V13.6z
	 M115.9,10.1c0-3.1-2.6-4.7-6-4.7h-9.7v14.1h3.2v-4.8h5.1l4.1,4.8h3.9l-4.4-5C114.3,13.8,115.9,12.3,115.9,10.1z M103.3,11.9v-4h6.4
	c1.7,0,2.9,0.4,2.9,2s-1.3,2-2.9,2H103.3z M122,13.6h7.9v-2.7H122V8.1h11.1V5.3h-14.3v14.1h14.3v-2.7H122V13.6z M129.9-0.1H122v2.7
	h7.9V-0.1z M88.5,14.1H94v1.4c-1,1.2-2.7,1.7-4.9,1.7c-3.7,0-6-1.6-6-4.8c0-3.1,2.2-4.8,5.8-4.8c2.1,0,3.6,0.6,4.8,1.8l0,0L96,7.2
	c-1.5-1.2-3.8-2.4-7-2.4c-5.7,0-9.1,2.8-9.1,7.5s3.4,7.5,9.1,7.5c3.8,0,6.6-1.4,8-3.3v-5.1h-8.6L88.5,14.1L88.5,14.1z M143.7,10.8
	c-2.8-0.2-4.8-0.3-4.8-1.6s2.3-1.6,4.3-1.6c2.2,0,4,0.5,5.5,1.5l2.1-2.1c-1.8-1.4-4.5-2.2-7.5-2.2c-4.4,0-7.5,1.6-7.5,4.6
	s3.7,3.9,7.8,4.3c3.2,0.3,4.7,0.6,4.7,1.8c0,1.2-1.5,1.7-4.3,1.7s-5-0.7-6.7-2.2l-2,2l0,0c2.2,1.8,5.1,2.8,8.6,2.8
	c5,0,7.6-1.9,7.6-4.7C151.3,12.1,148.1,11.1,143.7,10.8z M7.6,4.8C2.8,4.8,0,6.9,0,9.8c0,3.3,3.5,4.7,6.6,4.7c2.4,0,4.8-0.8,6.2-2.1
	c0,3.7-2.4,4.9-5.6,4.9c-1.9,0-3.6-0.6-4.9-1.8l-0.1,0.1l-1.8,1.8c1.6,1.5,4,2.4,7.2,2.4c5.3,0,8.5-2.9,8.5-7.5
	C16.1,7.8,12.9,4.8,7.6,4.8z M7.3,12.2c-2.3,0-4.1-0.6-4.1-2.3s1.7-2.5,4.3-2.5c2.5,0,4.3,0.8,5,3C11.2,11.6,9.1,12.2,7.3,12.2z
	 M28.8,12.1c1.9-0.2,3.4-1.5,3.4-3.2c0-2.6-3.3-3.9-7-3.9c-3.1,0-5.5,1.1-7,2.8l2,2l0,0c0.9-1.2,2.6-2.2,5-2.2C27,7.6,29,7.9,29,9.2
	s-1.9,1.7-4,1.7h-2.1v2.4H25c2.5,0,4.4,0.3,4.4,1.9s-2,2.1-4.1,2.1c-2.4,0-4.2-0.8-5.2-2.2l-2,2c1.6,1.7,4.1,2.8,7.3,2.8
	c4.1,0,7.4-1.6,7.4-4.4C32.7,13.3,30.7,12.3,28.8,12.1z M37.4,4.8c-1.2,0-2.2,1-2.2,2.2s1,2.2,2.2,2.2s2.2-1,2.2-2.2
	S38.7,4.8,37.4,4.8z"/>
</svg>
