<svg version="1.1" id="logo__instagram" xmlns="http://www.w3.org/2000/svg" xmlns:xlink="http://www.w3.org/1999/xlink" x="0px" y="0px" viewBox="0 0 503.8 503.8" xml:space="preserve">
<path d="M502.5,148c-1.2-26.8-5.5-45.1-11.7-61.2c-6.4-16.6-15.1-30.6-29.1-44.6s-28.1-22.6-44.6-29.1c-16-6.2-34.3-10.5-61.2-11.7
	c-27-1.1-35.6-1.4-104-1.4s-77,0.3-103.9,1.5C121.2,2.7,102.9,7,86.9,13.2c-16.6,6.4-30.6,15.1-44.6,29.1S19.7,70.4,13.2,86.9
	c-6.2,16-10.5,34.3-11.7,61.2C0.3,174.9,0,183.5,0,251.9s0.3,77,1.5,103.9C2.7,382.6,7,400.9,13.2,417c6.4,16.6,15.1,30.6,29.1,44.6
	s28.1,22.6,44.6,29.1c16,6.2,34.3,10.5,61.2,11.7c26.9,1.2,35.4,1.5,103.9,1.5s77-0.3,103.9-1.5c26.8-1.2,45.1-5.5,61.2-11.7
	c16.6-6.4,30.6-15.1,44.6-29.1s22.6-28.1,29.1-44.6c6.2-16,10.5-34.3,11.7-61.2s1.5-35.4,1.5-103.9S503.7,174.9,502.5,148z
	 M457,353.8c-1.1,24.6-5.2,37.9-8.7,46.8c-4.6,11.8-10,20.2-18.8,29s-17.2,14.3-29,18.8c-8.9,3.4-22.2,7.6-46.8,8.7
	c-26.6,1.2-34.5,1.5-101.8,1.5s-75.2-0.3-101.8-1.5c-24.6-1.1-37.9-5.2-46.8-8.7c-11.8-4.6-20.2-10-29-18.8
	c-8.8-8.8-14.3-17.2-18.8-29c-3.4-8.9-7.6-22.2-8.7-46.8c-1.2-26.6-1.5-34.5-1.5-101.8s0.3-75.2,1.5-101.8
	c1.1-24.6,5.2-37.9,8.7-46.8c4.6-11.8,10-20.2,18.8-29c8.8-8.8,17.2-14.3,29-18.8c8.9-3.4,22.2-7.6,46.8-8.7
	c26.6-1.3,34.6-1.5,101.8-1.5c67.3,0,75.2,0.3,101.8,1.5c24.6,1.1,37.9,5.2,46.8,8.7c11.8,4.6,20.2,10,29,18.8
	c8.8,8.8,14.3,17.2,18.8,29c3.4,8.9,7.6,22.2,8.7,46.8c1.2,26.6,1.5,34.5,1.5,101.8S458.2,327.2,457,353.8z M251.9,122.6
	c-71.4,0-129.4,57.9-129.4,129.4s57.9,129.4,129.4,129.4S381.3,323.5,381.3,252S323.4,122.6,251.9,122.6z M251.9,335.9
	c-46.4,0-84-37.6-84-84c0-46.4,37.6-84,84-84c46.4,0,84,37.6,84,84C335.9,298.3,298.3,335.9,251.9,335.9z M386.4,87.2
	c-16.7,0-30.2,13.5-30.2,30.2c0,16.7,13.5,30.2,30.2,30.2c16.7,0,30.2-13.5,30.2-30.2C416.6,100.7,403.1,87.2,386.4,87.2z"/>
</svg>
