<svg version="1.1" id="Logo__x2014__FIXED" xmlns="http://www.w3.org/2000/svg" xmlns:xlink="http://www.w3.org/1999/xlink" x="0px"
	 y="0px" viewBox="0 0 235 191" xml:space="preserve" style="fill: #000000">
<path d="M210.9,47.6c0.1,2.1,0.1,4.1,0.1,6.2C211,117.5,162.5,191,73.8,191c-27.2,0-52.6-8-73.9-21.7c3.8,0.4,7.6,0.7,11.5,0.7
	c22.6,0,43.4-7.7,59.9-20.6c-21.1-0.4-38.9-14.3-45-33.5c2.9,0.6,6,0.9,9.1,0.9c4.4,0,8.7-0.6,12.7-1.7c-22-4.5-38.7-24-38.7-47.3
	c0-0.2,0-0.4,0-0.6c6.5,3.6,13.9,5.8,21.8,6C18.3,64.6,9.8,49.8,9.8,33.1c0-8.8,2.4-17.1,6.5-24.2C40.1,38,75.7,57.2,115.7,59.2
	c-0.8-3.5-1.3-7.2-1.3-11C114.4,21.6,136,0,162.6,0c13.9,0,26.4,5.9,35.2,15.2c11-2.2,21.3-6.2,30.6-11.7
	c-3.6,11.3-11.2,20.7-21.2,26.7c9.8-1.2,19-3.8,27.7-7.6C228.5,32.3,220.4,40.8,210.9,47.6z"/>
</svg>
