<?xml version="1.0" standalone="no"?>
<!DOCTYPE svg PUBLIC "-//W3C//DTD SVG 20010904//EN"
 "http://www.w3.org/TR/2001/REC-SVG-20010904/DTD/svg10.dtd">
<svg version="1.0" xmlns="http://www.w3.org/2000/svg"
 width="600.000000pt" height="600.000000pt" viewBox="0 0 600.000000 600.000000"
 preserveAspectRatio="xMidYMid meet">
<metadata>
Created by potrace 1.11, written by Peter Selinger 2001-2013
</metadata>
<g transform="translate(0.000000,600.000000) scale(0.100000,-0.100000)"
fill="#000000" stroke="none">
<path d="M2760 5619 c-214 -19 -502 -87 -701 -164 -354 -140 -645 -330 -915
-599 -385 -386 -631 -852 -729 -1380 -134 -729 40 -1459 492 -2065 112 -150
354 -392 504 -504 606 -452 1336 -626 2065 -492 528 98 994 344 1380 729 385
386 631 852 729 1380 134 729 -40 1459 -492 2065 -112 150 -354 392 -504 504
-536 400 -1174 584 -1829 526z m-346 -1444 c390 -68 631 -332 712 -780 19
-104 27 -461 12 -516 -4 -14 -19 -31 -32 -37 -40 -18 -162 -139 -202 -200 -20
-31 -85 -105 -143 -163 -125 -124 -201 -169 -286 -169 -72 0 -90 21 -90 104 0
98 7 111 64 124 169 39 305 124 348 219 23 49 24 60 14 93 -15 51 -52 74 -121
75 -69 0 -110 -20 -195 -95 -218 -193 -614 -170 -835 49 -37 36 -79 85 -94
107 l-27 42 36 88 c58 141 143 297 191 352 49 56 52 85 11 96 -42 11 -107 -75
-201 -264 l-84 -170 -16 48 c-38 117 -51 336 -21 365 23 24 170 40 301 34 120
-5 190 -22 260 -63 29 -17 31 -21 32 -80 3 -139 81 -223 208 -224 104 0 186
73 204 183 26 162 -64 287 -207 287 -70 0 -112 -19 -153 -67 l-33 -40 -42 24
c-103 57 -319 80 -482 52 -35 -6 -67 -9 -70 -5 -12 11 47 148 92 216 111 167
296 285 503 320 80 13 255 11 346 -5z m1798 -18 c256 -67 438 -234 489 -447
29 -124 11 -288 -46 -400 -28 -55 -100 -137 -149 -171 -42 -28 -44 -35 -15
-44 17 -6 19 -9 8 -16 -8 -5 -27 -9 -42 -9 -42 0 -67 -17 -67 -45 0 -34 30
-40 132 -26 l83 12 39 -43 c46 -51 91 -141 107 -215 l12 -52 -39 -48 c-21 -26
-90 -100 -154 -164 -134 -135 -207 -179 -295 -179 -74 0 -90 20 -90 116 0 52
4 77 15 87 8 8 49 25 90 37 164 48 266 117 307 207 23 49 24 60 14 93 -6 22
-23 46 -39 56 -37 25 -125 25 -176 0 -57 -29 -151 -120 -194 -189 l-37 -60 -7
44 c-14 80 -72 114 -220 126 -82 6 -87 11 -63 53 20 35 18 57 -4 70 -29 15
-44 5 -97 -61 l-47 -59 -104 0 -103 0 0 255 0 255 188 0 c327 0 392 27 392
161 0 137 -119 201 -316 170 -129 -21 -293 -89 -414 -170 -24 -17 -45 -29 -46
-28 -1 1 -48 106 -104 232 l-101 230 38 32 c90 77 305 165 483 197 135 24 137
24 310 21 138 -2 181 -7 262 -28z m-1484 -1316 c31 -19 -19 -95 -98 -147 -34
-22 -160 -74 -181 -74 -13 0 29 71 77 128 66 79 158 121 202 93z m1801 -5 c33
-39 -69 -139 -189 -185 -44 -17 -84 -31 -90 -31 -35 0 108 178 169 210 43 23
94 26 110 6z m-1454 -233 c-36 -109 -85 -209 -133 -272 l-25 -34 -19 23 c-54
66 14 231 150 368 71 71 75 59 27 -85z m-1342 14 c74 -47 158 -87 252 -121 18
-7 14 -13 -35 -58 -65 -59 -192 -122 -274 -137 -68 -13 -206 -15 -206 -3 0 14
164 380 170 377 3 -2 44 -28 93 -58z m1713 -28 l34 -21 -25 -30 c-29 -35 -130
-128 -139 -128 -7 0 2 24 47 123 20 42 39 77 43 77 4 0 22 -9 40 -21z m1310
-133 c-45 -194 -208 -359 -425 -430 -153 -51 -213 -59 -426 -60 -220 0 -320
15 -497 74 -90 30 -202 82 -212 99 -3 5 5 32 17 59 19 41 40 63 108 113 46 34
121 98 165 141 l82 79 63 -19 c35 -11 83 -23 107 -27 23 -4 42 -8 42 -10 0 -2
-11 -27 -25 -57 -57 -121 -9 -234 89 -212 45 10 111 58 189 136 59 60 67 65
67 44 0 -91 79 -160 182 -159 107 1 220 73 383 245 93 98 100 103 103 78 2
-15 -4 -57 -12 -94z m-2453 -10 c-8 -72 3 -119 34 -156 89 -107 264 -75 426
78 l37 36 0 -27 c0 -33 24 -94 47 -119 16 -17 14 -21 -28 -64 -91 -94 -232
-170 -389 -210 -105 -27 -397 -27 -520 0 -177 38 -348 114 -443 198 l-39 33
129 1 c110 1 139 5 210 28 94 31 204 100 278 175 48 50 51 51 110 52 33 0 78
6 100 14 22 7 43 13 47 14 4 1 4 -23 1 -53z m1672 -47 c-84 -84 -129 -119
-155 -119 -20 0 -10 78 18 131 l28 54 80 11 c43 6 88 12 99 13 14 1 -8 -26
-70 -90z"/>
</g>
</svg>
