<?xml version="1.0" encoding="utf-8"?>
<!-- Generator: Adobe Illustrator 22.0.0, SVG Export Plug-In . SVG Version: 6.00 Build 0)  -->
<svg version="1.1" id="Calque_1" xmlns="http://www.w3.org/2000/svg" xmlns:xlink="http://www.w3.org/1999/xlink" x="0px" y="0px"
	 viewBox="0 0 235.2 125.8" style="enable-background:new 0 0 235.2 125.8;" xml:space="preserve">
<style type="text/css">
	.st0{fill:none;stroke:#FAAD85;stroke-width:4;stroke-linecap:round;stroke-linejoin:round;stroke-miterlimit:10;}
</style>
<path class="st0" d="M233.2,14.5l-0.7,0.7c-15.8,15.8-41.3,15.8-57.1,0l-1.3-1.3C158.6-1.7,133.5-2,117.6,13.2l-2.1,2
	C99.7,30.3,74.6,30,59.1,14.5l0,0C43.3-1.3,17.8-1.3,2,14.5"/>
<path class="st0" d="M233.2,38.7l-0.7,0.7c-15.8,15.8-41.3,15.8-57.1,0l-1.3-1.3c-15.5-15.5-40.6-15.8-56.5-0.7l-2.1,2
	c-15.9,15.2-40.9,14.9-56.5-0.7l0,0C43.3,22.9,17.8,22.9,2,38.7"/>
<path class="st0" d="M233.2,62.9l-0.7,0.7c-15.8,15.8-41.3,15.8-57.1,0l-1.3-1.3c-15.5-15.5-40.6-15.8-56.5-0.7l-2.1,2
	c-15.9,15.2-40.9,14.9-56.5-0.7l0,0C43.3,47.1,17.8,47.1,2,62.9"/>
<path class="st0" d="M233.2,87.1l-0.7,0.7c-15.8,15.8-41.3,15.8-57.1,0l-1.3-1.3c-15.5-15.5-40.6-15.8-56.5-0.7l-2.1,2
	c-15.9,15.2-40.9,14.9-56.5-0.7l0,0C43.3,71.3,17.8,71.3,2,87.1"/>
<path class="st0" d="M233.2,111.3l-0.7,0.7c-15.8,15.8-41.3,15.8-57.1,0l-1.3-1.3c-15.5-15.5-40.6-15.8-56.5-0.7l-2.1,2
	c-15.9,15.2-40.9,14.9-56.5-0.7l0,0c-15.8-15.8-41.3-15.8-57.1,0"/>
</svg>
